<svg xmlns="http://www.w3.org/2000/svg" viewBox="0 0 256 256" role="img" aria-labelledby="title desc">
  <title id="title">Lidl style logo</title>
  <desc id="desc">Yellow circle on blue square with red ring and stylized Lidl letters.</desc>
  <rect width="256" height="256" fill="#0057b8"/>
  <circle cx="128" cy="128" r="106" fill="#ffed00" stroke="#e30613" stroke-width="8"/>
  <circle cx="96" cy="84" r="11" fill="#e30613"/>
  <path d="M82 96 L96 112 L112 96 L128 112 L112 128 L96 128 Z" fill="#e30613"/>
  <path d="M38 102 h15 v52 h34 v15 h-49 z" fill="#0057b8"/>
  <path d="M118 102 h32 c17 0 30 12 30 30s-13 30-30 30h-32zm16 15v30h16c8 0 14-6 14-15s-6-15-14-15z" fill="#0057b8"/>
  <path d="M189 102 h15 v52 h30 v15 h-45 z" fill="#0057b8"/>
</svg>
